<svg data-v-70b83f88="" version="1.0" xmlns="http://www.w3.org/2000/svg" xmlns:xlink="http://www.w3.org/1999/xlink" width="100%" height="100%" viewBox="0 0 340.000000 250.000000" preserveAspectRatio="xMidYMid meet" color-interpolation-filters="sRGB" style="margin: auto;"> <rect data-v-70b83f88="" x="0" y="0" width="100%" height="100%" fill="#ffffff" fill-opacity="1" class="background"></rect> <rect data-v-70b83f88="" x="0" y="0" width="100%" height="100%" fill="url(#watermark)" fill-opacity="1" class="watermarklayer"></rect> <g data-v-70b83f88="" fill="#E51714" class="j-b-g-c iconbgsvg" mask="url(#001351e8-2c63-47ff-8631-f8f792ad2638)" transform="translate(95.00000004526248,54.60655212402344)"><g data-d="container" transform="translate(0,0)"><g><rect fill="#E51714" fill-opacity="0" stroke-width="2" x="0" y="0" width="150" height="140.7869" class="image-rect"></rect> <svg filter="url(#colors9477205425)" x="0" y="0" width="150" height="140.7869" filtersec="colorsf7708728399" class="image-svg-container primary" style="overflow: visible;"><svg xmlns="http://www.w3.org/2000/svg" viewBox="0 0.02 395.06 370.79471" style="overflow: visible;"><g transform="scale(1, 1) skewX(0)"><g fill="#040000"><path d="M2.47 310.82c-.06.6 0 .9 0 0zM186.21 1.28h.46a9.89 9.89 0 0 1 .94-.85zM261.19 3.38l.46.09c-.04-.2.05-.41-.46-.09zM3.31 9.09c-.08-.7-.14-1.41-.17-2.33a10.32 10.32 0 0 0 .17 2.33zM104.87 368.69h-.32c.26.07.53.12.8.21zM102.81 369.12a1.44 1.44 0 0 0 .56.15 2.45 2.45 0 0 0-.56-.15z"></path><path d="M102.81 369.12c-.27-.19 1.16-.34 1.74-.4a15.27 15.27 0 0 0-5.51-.28c.01.44 2.51.45 3.77.68zM354.13 367.25l-.75.21a3.6 3.6 0 0 0 .75-.21zM29.48 29.9s-.07.07-.08.12.1-.02.08-.12zM314.79 366.74l-.43.82c.38-.34.46-.56.43-.82zM330.47 3.91a1 1 0 0 0 .37.63h.16zM382.54 312.42L382 311a6.48 6.48 0 0 0 .27 1.58.7.7 0 0 0 .27-.16zM391.74 58.43c.1.08.19.31.29.33a98 98 0 0 0 .31-11.4l-1-.33z"></path><path d="M393.74 12.08V5.51h-26.91l-4.24-.09c-5.66-.18-11.7-.54-22.91-1.25l2.1.68c-4.8.39-9.58.78-10.91-.31-14.52-.22-29.55-1.07-39-2.77l-2.07 1.58c-3.06-.09-7.66-2.48-9.15-.26l-6.55.7c-4.19-.13-6.75.78-11.52-.13l-.9-.19a.29.29 0 0 0 .05.13c-9.48-.7.1 1.42-10.76.51-3.48-1.13-3.85 2-9.14 1.65l-5.31-2.27c-9.59-1.31-11.23 1-25.12 1-6.67-.81-9.89-2.75-5.47-4.47-6.07 2.08-2.77 1.36-10.82 2.36-1.24-.86-.38-1 1.4-1.81-7.16-1-4.42.77-9.81.72-1.57 1.62-3.38 4.18-5.13 4.29l2.09.5a68.34 68.34 0 0 1-18.66.44l.25-.81-7.07.41-.45-1-10.09.32 1.38.28a104.52 104.52 0 0 1-14.6 0l.17-.57c-12.56-1.8-22.91.55-37.61.74L99 4.63c-5-1.17-1.37 1.81-7.34 1.22l-.3-1.44c-5.3 1.9-6.84-.41-10.46-1.12l1.69 1.89-6.81-.4c-7.51-.63-4.61-2.39-3.51-3.38l-5.12 1.49-1-1.67C62.42 3.16 62.42.9 55.87 2 55.33 1.31 57 1 54.76.68L44 3l6.51-1-.8 2.44c-6.78 1.85-9.18-.27-14 .41L39 4.13a32.94 32.94 0 0 1-7.69-.07c-.31-.06-1.17-.14-1.79-.21l-2.06-.24c-1.42-.17-3-.33-5.05-.47 2.67.46 6.36 1.13.94 1.45-4 .13-2.46-.86-6.54-1.13-.07.65-1.58 1.18-3.81 1.54a55.41 55.41 0 0 1-8.78.47c0 1.68-.12 3.36-.27 5a3 3 0 0 1-.6-1.36 26.8 26.8 0 0 1 .29 7.49c-.64-1.13-1.25-2.28-1.85-3.49.57 3 1.15 5.89 1.72 8.6a58.07 58.07 0 0 0 .07 7.92c0 .59 0 1.14.06 1.62a11 11 0 0 1 0 1.11c-.06.39-.21.59-.51.49L3 32.44a4.11 4.11 0 0 1-.09-.55l-.19-1.46-.43 23-1.43.27c2 2.19-.76 12.09 1.73 11.36-1.36 4.19 1 16.49-1.85 14-.21 14.59 2.49 22.47 1.12 40.2-2.38 6.31-1.61 23.61-1.86 35 1 22.25 1.89 36.62 2.65 59.36-3.32 13.67 1.15 34.1-.73 48.82l1.32 4c-2.1 9.78.47 24.71-1.58 38.43.58 3.37.76 5.13.81 5.91A2.08 2.08 0 0 1 3.62 309c-.59 3.92.15 11.85-1.53 11.28l-.17-1c-1.67-.58.78 11.89-.67 16.26l1.8-2.4-.31 7.43-.34-2c.11.92.21 1.82.32 2.71l.07.66.07 1.06c0 .75.09 1.5.13 2.25q.21 4.39.42 8.52c.23 5.46.36 10.51.43 15.37 8.52-.1 16.17 0 23.76.14l2.84.06 1.87.06 3.33.14 6.65.25a189.86 189.86 0 0 0 30-1.13c-4 1.95 6-1 6.37 1.11 7.63 2.69 14.14-.58 20.4-1.3 0-.11.08-.23.44-.39l10.94.25c-6.54 2.71 7.88-2.24 1.88.06 28.53 2 65.77 0 98.8.89l-1.45-.69c8.38.13 18.8-.71 25.15.4s13.9-1.77 16.37-1.88c6.17-1.06 11.82.68 11 1 7.2-.44 14.1-2.71 24.12-1.69 3.54 2.29 28.21-2.25 28.52.34l.11-.22c13.24 1.82 25.73-1.28 40 .37a3.63 3.63 0 0 1-.76.36l29-7.83-7.81-8.15c1.33-9 3.69-24.37 5.11-29.71-.52 10.38.24 2.74.88.69l-.48-.69c.47-6.22 1.69-6.22 2-9.32a.71.71 0 0 0-.34.18l.16.4c-.21.29-.36.12-.48-.22-.26.08-.47-.21-.39-1.9l.12.32c-.17-2.59 0-7.08.1-9h1c-1.93-4.6 2.94-31 3-37.15 1.28-6.21-.32-13.92.32-21.68.33-12.37 1.48-6.19 2.36-12.39.63-7.76-1.19 1.57-1.25-1.54l1.41-9.29c.12 5.39.73 2.47 1.12 1.48.18-8 2-20.69 0-23.16 1-10.84 1.78-10.86 1.88-15.51-.37 1.56-.7 4.65-1.11 4.67.89-4.34-.22-2.07-.42-.3-.88-6.62 3.69-34.35 1.47-35.74h.4c-1.65-1.54-3.26.93-4.17-3.69l.74-3.08-.72-4.65c.54-3.11 1-1.58 1.18-1.58-.76-7.57.15-18.12.37-27.29l-4.51 9.71c1-7.73 3.16-21.68 1.71-23.22l1.51-4.65c2.9-15.5-1.25-10.82-.38-17l1.65-7.79v7.75c.84-7.75 1.38-10.85 2.46-17 0 0 0-.06-.05-.06-.07.42-.15.7-.25.75v-1.08c-.82-.94-1.38-5-1.33-10.44.12-3.87-.13-7.33-.19-11.36v-3.14c0-1.41.08-2.88.12-4.43.14-3.54.39-7.52.82-12.43q-.84-1.77-1.68-3.21l.28-4-9-.72.79-1.34h10.25c.14 11.81.34 28.1.49 40l.61.21c0-3.47-.15-7.18-.28-10.59-.06-1.72-.12-3.36-.17-4.87 0-2.36-.05-4.48 0-6.3a61.92 61.92 0 0 1 1-7.33c.39-1.71.82-2.75 1.21-1.56-.28-1.79-.61-3.42-.95-4.96zm-44 331.72l-68.16 1.51-54.4-2.73-132.4.92-9.45 1.95c-10.48-1.37-22.14-1.56-34.17-1.44l-18.21.27h-3a7.49 7.49 0 0 1-1.27 0 7.22 7.22 0 0 1 .26-1.34 3 3 0 0 1 .23-.58 2.07 2.07 0 0 1 .15-.25l.08-.11v-.77l-1.67-.58c-.1-7.9.94-7.36 1.23-9.32-.37-73.5-2.6-149.17-.49-215.3 1.1-6.37.45-25.77 1.62-30.77-1-10.74-1.53-21.8-1.75-32.86-.11-5.53-.16-11.06-.16-16.56v-4.4c0-.44 0-.87.07-1.3l.18.26-.14-.78.82-.19a1.16 1.16 0 0 1 .32.47c.17-.37.72-.56 1.36-.62h5l5.68.14c7.68.26 15.68.77 22.67 1.07l-.81.19c81.63.3 157.41-2.82 238.37-.49 12.53.91 25.74 1.1 39.39 1l20.84-.19 5.11-.08.45-.07c.32-.05.68-.09 1-.12a7.71 7.71 0 0 1 0 1v.57l-.05 5.41c-.1 7.22-.32 14.45-.7 21.67-1.66 7.93-.41 95.3.37 103l2-10.13c.93 32.52-1.11 47.69.53 75.52l-.44-1.54c-.47 4.05 4.1 6.33-1.48 51.09h-.2c0 1.55.44 1.54-.1 4.64l1.24-7.73c.51 4.63 1.49 8.68 1.62 14.86-.22 1.31-.64 1.76-1 1.89l.34 15.15-1.32 4.65c.72 4.63 3.49 2.52 1.94 14.91 1.93-4.67 1.16 6.15 2.14 4.62-.24.63-.6 2.05-.93 3.19.14 4.5.39 11.42.8 16.91zM394.74 16.92c.1.54.21 1.07.32 1.63a9.81 9.81 0 0 0-.32-1.63z"></path><path d="M262.15 368.09l-.67.05a1.64 1.64 0 0 0 .67-.05zM370.42 291v-.34c-.72-.03-.42.47 0 .34zM389.69 110.48v.57l1-2.14zM390.28 226.08c.22-5.19.05-5.43-.24-4.7a24 24 0 0 0 .24 4.7zM371.76 333.38c-.06 2.73.36 1.69.83.09l-.12-4.72c-.17 1.53-.54 3.06-.71 4.63zM381.33 322.25l.58.85c-.14-1.6-.35-1.54-.58-.85zM359.2 168.93c-1.29-4.29.63-8.66-1.94-12.88-1.41-2.31 2.39-3.74 4.65-5.58l-4.68-5.5 3.36-2c-1.14-2.79-4-5.53-2.82-8s.18-4.92.44-7.37c.37-3.49.52-6.95-4.12-10.09 1.53-.85 3.66-1.49 3.76-2.18.41-2.92 3.88-5.85.16-8.81-.87-.69-1.71-1.68-1.14-2.33 1.83-2 .15-4-.35-5.93-.08-.28-.18-.56-.29-.85a3.47 3.47 0 0 1-.19-.61l-.19-.75c-.26-1-.53-2-.69-2.94a8.29 8.29 0 0 1 1.24-6.2 3.28 3.28 0 0 0 .07-3.45 14.34 14.34 0 0 1-3.2-8c-.32-2.86-.19-5.94-.49-8.73a56.5 56.5 0 0 1-.57-8.55 33.92 33.92 0 0 1 2.62-11.24 11.48 11.48 0 0 0 .7-6.91 28.72 28.72 0 0 0-5.16 1.46c-6.28 2.42-10.37 2.64-15.19 4-4.17 1.17-6.17.4-6.56-3.76-.28-3.25-2.9-4.34-6.91-2-3.24 1.94-5.76 2.15-7.92 1s-4.9-.94-7.51-.84-5.14.05-7.67-1.74a.91.91 0 0 0-.33-.13.37.37 0 0 0-.21 0 1.38 1.38 0 0 0-.49.28 4.63 4.63 0 0 1-1 .74c-1.15.38-2.34 1.18-3.47.82-6.48-2.07-12.92 4.23-19.4.29-.29-.18-.65.32-1 .38-2 .38-4 1.38-5.93.94a41 41 0 0 0-10.48-.63c-2.24.08-4.68 1.52-6.8-2.24-.78-1.4-1.55-.49-2.32.61-.56.8-1.24 1.72-1.85 1.63-4.63-.66-9.28-1.07-13.88-2.53-3.65-1.15-7.22-1.93-10.85-.08-1.1.57-2.32.16-3.46-.27-2.79-1-5.53-3.42-8.41-1.58a1.2 1.2 0 0 1-1.47-.34c-4-3.93-8.27-1.48-12.37-1.91-6.94-.72-13.92 3-20.87-.87a.36.36 0 0 0-.49.09c-2.39 3.37-4.88.55-7.3 1-2.81.47-5.59-.48-8.45.61-3.1 1.18-6.23 1.45-9.25 4.08-.89.77-2 .23-3 .08-3.8-.58-7.54-2.16-11.38-2.44a102.85 102.85 0 0 0-15.89-.31c-3.33.26-6.65.63-10 1.2-.78.14-1.53 1.31-2.33 2-1.19-2.14-2.38-4.28-3.25-5.83l-2.33.48-.52.11-.28.05-.47.06-1.87.27c-5.89 1-11.54 1.87-16.8 3-4.27.92-8.06 1.45-14.09-1.69-1.31-.68-3.54-1.21-3.63-.54-.35 2.65-2.41 2.76-4.77 2.63s-5-.5-5.57 1.18c-.15.43-2-.15-3.14-.89-4.11-2.67-5.4-1.82-6.7-1-.57.36-1.15.7-1.74 1l2.6 9.93a8.07 8.07 0 0 1 .14 1.82c-1.56-.47-3.18-.86-4-1 0 3.56.68 6.86-.24 8.78-2.18 4.61-2.86 10.81-2.9 17.15s.55 12.89.92 19.12l.17 3.25.13 1.8c.07 1.2.11 2.4.14 3.61v7.2c0 2.59-1.58 5.2 1 7.76.54.53.22 1.29-.26 1.88-2.24 2.76-3 5.23-1.5 8.18.71 1.36 1 2.6-.48 3.89-3.08 2.77-2.79 5.48.75 8.19 1.13.87 1 2 2.2 2.86 5.11 3.52 1.2 7.05.37 10.57-3.57 1.69-1.78 3.5-.52 5.24.68.93 2.37 1.67 1.06 2.8-4.81 4.14.78 8.9-4.79 13.06-.81.61.31 1.62.47 2.45.19 1 .32 2.07.48 3.11-.76 2.57-2 5.18-1.23 7.69 1 3.53.77 7 .35 10.48a54.79 54.79 0 0 0-.55 10c.4 6.67 1.3 13.34 1.81 20 .31 4 .3 8 .42 12 0 1.33.09 2.67 0 4-.32 8.26-.54 16.52-1.1 24.77a12.2 12.2 0 0 0-.57 1.67 12.35 12.35 0 0 0-.13 2.91 4.47 4.47 0 0 0 .52 3.59l.69 5.82c-.23.91-.5 1.83-.68 2.7-1.36 6.57-1.78 13.71.39 19 1.12 2.71 1.86 5 1.12 8.64-.63 3.14-.16 5.76-.3 8.68-.2 4.54-.49 9.18-.78 13.89-.09 1.49-.28 3.08-.41 4.61a22.87 22.87 0 0 0 2.4.13c5.74 0 11.75-.41 17.58-.71a2.4 2.4 0 0 1 .11.23 7.85 7.85 0 0 0 1.1-.3 147.63 147.63 0 0 1 18.2-.07c5.22.39 10.55 1 16 1l6.84-.08a4 4 0 0 0 .82.21l.39.05h.21a1.85 1.85 0 0 0 .88-.3c6.07-.13 12.15-.26 18.22-.24a4.6 4.6 0 0 0 3.57 0H124a158.21 158.21 0 0 0 17.12-.8c.54.12 1.07.2 1.61.37.8.26 1.76 1.1 2.39.34a3.2 3.2 0 0 1 1.24-.95l1.74-.07a14.64 14.64 0 0 0 2 .31c2.23.06 4.45 0 6.68 0 .94.09 1.88.06 2.82.21a3.44 3.44 0 0 0 1.11 0c.45 0 .9.09 1.34.09 3.28 0 6.54 1.05 9.84.29 2.12-.48 4.29.56 6.43.92 3.11.54 6.18 3.43 9.34 0 1-1.08 2.3-.28 3.47-.28 4.82 0 9.65 0 14.48.15a15.13 15.13 0 0 1 4 .57 16 16 0 0 0 11.34-1.14c1.65-.75 3.14-1.95 4.81.13.82 1 1.93.61 2.91.68s2-.43 3-.05c4.48 1.77 8.89 2.29 13.26-1.87.84-.8 1.95.1 2.93.4 3.47 1.08 6.92 3 10.4 3.17 4.65.24 9.31-.75 14-1.37 5-.66 9.94-2.73 15-2 .5.08 1 .29 1.49-.07 3.41-2.62 6.8-2.22 10.31-1.11 2.93.93 6-.79 8.95 0a10.12 10.12 0 0 0 7.44-.75v-4.05l.21-.07a6.87 6.87 0 0 1 5.85.67c4.74 3 6.37 1.56 9.84-4.69-.94-3.3-1.78-6.84-2.86-9.82-.65-1.78-1.7-2.59-2.53-4a8.14 8.14 0 0 1-1-5.72h6.4v-.05l15.15.05c1.25-.62 3.71-1.3 3.54-1.86-.73-2.54 1.7-4.51 5.74-5.9-1.58-3.83-2.9-7.29-4.49-10.74-.63-1.36.21-2.53 1-3.85 1.63-2.71 5.82-5.12 5.26-8.11-.53-2.81.58-5.67 0-8.47s-2.2-5.51.47-8.34c.86-.91-1.09-2.23-1.58-3.37-.34-.81-1.3-1.89-.4-2.41 5.2-3 .9-6.56 3.81-9.67-1.72-5-.58-10-.53-14.92 0-3 0-6 .07-8.94.17-5.65-.36-11.32.82-16.93 1.55-7.33 2.22-14.63.94-22a2.06 2.06 0 0 1 .8-2.42c3.85-2.28 2.05-4.54.23-6.74s-2.34-4.15-2.99-6.31zm-54.78-22.68c-.31-.06-.51-.67-.75-1a5 5 0 0 1 1.23-.61 24.07 24.07 0 0 1 2.72-.17 5.83 5.83 0 0 1 1.66.4 1.43 1.43 0 0 1 .57 1.21 1.35 1.35 0 0 1-1 .83 33.15 33.15 0 0 1-4.43-.66zm4.05 94.54c.06.16-.16.42-.26.63-.21-.1-.55-.15-.6-.31s.16-.41.26-.62c.21.1.55.15.6.3zm-1.89 35.38l-1.08-.07.22-.66c.22 0 .52 0 .65.08s.15.42.21.65zm-15.64-3.59a2.29 2.29 0 0 1 .73-2c2-1.53 3.87-.39 5.63.7a7.27 7.27 0 0 1 1.7 1.52 1.62 1.62 0 0 1 .39 1.38 4.4 4.4 0 0 1-1.54 1.52 3.67 3.67 0 0 1-1.46.19c-.29 0-.55 0-.8-.05-2.08-.3-4.05-.92-4.65-3.26zm8.12-98.58c-.13-1 .46-2.15.95-3.95 1.28 1.18 2.2 1.67 2.56 2.44a1.88 1.88 0 0 1-1.39 2.83c-.65.07-2.05-.81-2.12-1.32zm1 51.83c.16-.16.44-.18 1.18-.44 1.27 1.56 2.74 3.23 4 5 .2.29-.41 1.53-.91 1.78s-1.83.13-2-.25a51.29 51.29 0 0 1-2.5-5.49c-.12-.16.07-.5.23-.65zm3-110.9c-.12-.26.78-1 1.61-1.93a8.71 8.71 0 0 1 1.4 2.55c.06.37-.87.9-1.35 1.36a8.79 8.79 0 0 1-1.66-2.03zm8.37 103.73a1.59 1.59 0 0 1 1.23-1.05 6.38 6.38 0 0 1-1.23 1zm-32.75 21.57l.08-.46.34.32zm2.15 41.18c.07-1.74 1.81-3 3.85-2.79a5.53 5.53 0 0 1 2.69 1c-.79.22-1.59.46-2.38.76a20.41 20.41 0 0 0-4.13 1.74 5.62 5.62 0 0 1-.03-.76zm4.76-73.41c-1.83.77-3.73 1.36-5.62 2.05v.06-.09a26.44 26.44 0 0 1-4-1.77 4 4 0 0 1-1.55-2.25c-.11-.42.62-1.39 1.16-1.61a2.29 2.29 0 0 1 3 1.47 39.69 39.69 0 0 1 1.37 4.16h.07c1.22-1.55 2.37-3.16 3.72-4.59.33-.36 1.4-.28 2-.06.74.3.68 2.28-.15 2.63zm-17.4 59.2c.09-.3 1-.72 1.21-.59 1.36 1 2.62 2.12 4.22 3.45-1 .71-1.64 1.46-2.17 1.42-1.96-.15-3.73-2.54-3.26-4.28zm-1.38-52.68c-1.88-.13-2.95-1.87-2.49-4 .17-.77 1.19-1.87 1.87-1.91 2-.13 3.71 2.13 3.43 4.77-.76.36-1.82 1.21-2.81 1.14zm4.47-74.05c-.44.09-1.54-1.23-1.7-2a2 2 0 0 1 2.42-2.27c.81.25 1.43 1.11 2.69 2.15-1.5 1-2.38 1.92-3.41 2.12zm-9.5 106.71c.09.47-.55 1.09-1.24 2.28a11.71 11.71 0 0 1-1.54-2.56c-.07-.22 1-1.1 1.43-1a2 2 0 0 1 1.35 1.28zm-18-5.26c-.4 0-1.19-1-1.2-1.5a1.51 1.51 0 0 1 2.06-1.47c.55.13 1 .86 1.89 1.77a9.19 9.19 0 0 1-2.72 1.2zm1.23-11.6c.19-.12.4-.35.57-.33s.33.3.5.47l-.93.54c-.01-.23-.06-.45-.15-.68zm-4.8 44.06c-.06.2-.11.4-.17.59-.21 0-.47.08-.6 0s-.13-.38-.18-.58zm-1.65-107.3l-.84-.93 1.48-.87c.16.39.54.87.43 1.16s-.63.44-1.04.64zm-7.13 112.49c.51 1.2-.33 2.42-1.71 2.85s-2.9-.61-3-2.49c-.06-1 .64-2 1.3-3.92 1.63 1.6 2.98 2.41 3.44 3.56zm-.82-21l.52-.19c.07.17.13.35.2.53zm-.9-30.6a16 16 0 0 1-6.68-.86c-3.87-1.52-4.51-6.72-1.34-9.44a12.85 12.85 0 0 1 3.93-2.27c6.14-2.21 9.2 0 9.37 6.6.12 3.84-1.37 5.75-5.25 6zm-12.85 6l-1.32-1.19c.38-.24.76-.68 1.12-.66s.65.52 1 .82zm0 30.55c-.25.38-.45 1-.77 1.07s-.81-.37-1.22-.59c.25-.37.45-1 .75-1s.86.27 1.27.48zm-.41-57.52a2.91 2.91 0 0 1-2.17.44c-1.24-.25-2.41-1.12-3.64-1.18-2.8-.14-4.13-1.93-4.93-4.14-2.63-7.24-1.58-8.6 5.83-9.61 2.58-.35 5.39 1 8.1 1.57a.83.83 0 0 0 0-.15l.18.19h-.14c.26 1.21.5 2.42.82 3.61 1.1 4.1-1.22 6.81-4.05 9.27zm16.68-13.22c-4.41 1.8-8.89 1.5-13.35.2v.14l-.18-.19.18.05a12.05 12.05 0 0 1 0-2.17c1.09-6.33 3.63-7.73 9.67-5.31a14.72 14.72 0 0 1 4.1 2 4.87 4.87 0 0 1 1.48 3.23c.06.67-1.03 1.68-1.9 2.01zm-.79-17.09l.08-.46.34.32zm-33.81 63.58l-.25.54c-.19-.08-.47-.13-.52-.27s.14-.36.22-.54zm-79.79 13.19a3.64 3.64 0 0 1 3.83 3 4.16 4.16 0 0 1-3.47 4.37 3.26 3.26 0 0 1-.62.06 3 3 0 0 1 .59 3.2c-.29.78-1.17 1.34-1.74 2-.77-.53-1.5-.81-1.49-1.07a25.08 25.08 0 0 1 .52-4.23c0-.1.21-.19.44-.27a3.28 3.28 0 0 1-1.79-2.24 4.06 4.06 0 0 1 3.73-4.86zm-3.56-65.85a10.58 10.58 0 0 1 1.25-1.43l1.18 1.2a6.28 6.28 0 0 1-1.52 1.07c-.19.03-.95-.81-.91-.88zm3.69 39.3h1.12l-.24.67c-.23 0-.53.06-.68-.06s-.14-.42-.2-.65zm1.13-27.33c.12-.67 1.11-1.36 1.87-1.65.32-.12 1.49.77 1.45 1.13-.07.81-.65 1.56-1.36 3-.96-1.21-2.03-1.95-1.96-2.48zM109.71 173a5.34 5.34 0 0 1-5.06-5.65c.11-1.91 3-3.73 6-3.78a4.41 4.41 0 0 1 4.52 4.27 5.13 5.13 0 0 1-5.46 5.16zm-2.63 81.17c.66-.28 1.53-1 2.36-.9a6.49 6.49 0 0 1 2.55 1.24c.12.07.13.65 0 .7a13.08 13.08 0 0 1-3.24 1.43c-.47.1-1.16-.76-1.69-1.24-.06-.07.02-.4.02-1.19zm-.41-13.63a7.34 7.34 0 0 1-1-.31h-.51l.09-.14.42.14h1.54c-.21.16-.39.38-.54.35zm20.72-90.2a3.21 3.21 0 0 1-1.81-2c-.32-1.33 1.55-2.85 3-2.47.8.21 1.42 1.11 1.86 1.48.01 2.12-1.55 3.52-3.05 3.03zm.72 17.93c-.12.2-.19.51-.36.57s-.39-.18-.59-.28l.35-.61zm5 35.32v.63l-.54-.26zm0-8.75c.37-.18.73-.37 1.09-.56a6.6 6.6 0 0 1 .21 1.23c0 .12-.51.36-.55.32a8.29 8.29 0 0 1-.74-.95zm-.47 71.39c.08-.2.45-.49.51-.45.91.59 1.79 1.22 2.68 1.84l.45.1-.11.13-.34-.23c-1.06-.23-2.12-.45-3.16-.71a.93.93 0 0 1-.02-.64zm7.3-29.93a4.83 4.83 0 0 1 .53-.3 7.9 7.9 0 0 1 .5 1 3.12 3.12 0 0 1-.54.31c-.16-.31-.34-.62-.43-.97zm19.43 36c.26-3.69 4.57-8.5 8.21-9.08a4.72 4.72 0 0 1 5.2 2.39 31.53 31.53 0 0 1 1.49 4.56c.06 5-1.73 7.62-5 9.22a6.94 6.94 0 0 1-7.76-1.59 6.61 6.61 0 0 1-2.13-5.45zm3.5-26.3a2.27 2.27 0 0 1 1-1.75c.41-.18 1.19.45 2.1.85-.65.83-1 1.67-1.55 1.85-.42.1-1.54-.63-1.55-.95zm3.94-40.36l.29-.32.14.39zm3.19 14.55l1.17-.55a5.6 5.6 0 0 1 .21 1.2c0 .1-.51.35-.58.29a8.09 8.09 0 0 1-.8-.94zm11-10.72a2.57 2.57 0 0 1 2-.57c.46.16.6 1.18.67 1.34-.51 3.36-.72 6.41-4.37 6.94a3.24 3.24 0 0 1-2.65-.76 2.93 2.93 0 0 1-.12-2.78 29.71 29.71 0 0 1 4.47-4.17zm-.24-25.4v-.47l.45.24zm11.72 38.55a6.09 6.09 0 0 1-5 6 4 4 0 0 1-2.81-.74 7.32 7.32 0 0 1-1.7-2.53c-.82-1.6-1.75-3.23-.54-5.06a6.4 6.4 0 0 1 6.82-2.45c1.81.46 3.15 2.45 3.21 4.78zM190 218l.31-.34.14.42zm-8.27 25.92a3 3 0 0 1 2.24-1.56c1.91 0 3.37 1.87 3.22 4.13-.63.26-1.51 1-2.33.92-2.21-.15-3.75-1.87-3.18-3.48zm-.7-11.48a9.09 9.09 0 0 1 .55-1.18 1 1 0 0 1 .66.15 8.29 8.29 0 0 1 0 1.32zm1.97 20.88c.86-1.36 5.09-1.59 6.24-.46.13.13.1.44.14.67-.56 1.44-4.48 2.7-6 1.77a2.05 2.05 0 0 1-.38-1.98zm-6-12.49l-.38.43-.2-.53zm-.4-58.83a4.92 4.92 0 0 1-.35-.61 12.55 12.55 0 0 1 1.16-.58 5.32 5.32 0 0 1 .34.63 12.2 12.2 0 0 1-1.15.56zm17.07-4.1a1.06 1.06 0 0 1 .12.1z"></path></g></g></svg></svg> <defs><filter id="colors9477205425"><feColorMatrix type="matrix" values="0 0 0 0 0.89453125  0 0 0 0 0.08984375  0 0 0 0 0.078125  0 0 0 1 0" class="icon-fecolormatrix"></feColorMatrix></filter> <filter id="colorsf7708728399"><feColorMatrix type="matrix" values="0 0 0 0 0.99609375  0 0 0 0 0.99609375  0 0 0 0 0.99609375  0 0 0 1 0" class="icon-fecolormatrix"></feColorMatrix></filter> <filter id="colorsb221218105"><feColorMatrix type="matrix" values="0 0 0 0 0  0 0 0 0 0  0 0 0 0 0  0 0 0 1 0" class="icon-fecolormatrix"></feColorMatrix></filter></defs></g></g> <g data-d="icon-text" hollow-target="textRect" transform="translate(25.10550308227539,25.186145782470703)"><!----> <g data-d="text"><g data-gra="path-name" fill-rule="" class="tp-name iconsvg-namesvg"><g transform="scale(1.8600000000000008)"><g><path d="M18.69 5.21L18.37 5.48 18.26 4.83 17.35 4.51Q16.65 3.97 16.27 3.54L16.27 3.54Q14.5 2.79 13.27 1.29L13.27 1.29Q12.35 0.11 11.71-1.24L11.71-1.24Q12.89-1.13 14.15-0.91 15.42-0.7 16.81-0.75L16.81-0.75Q17.29-1.77 17.4-2.63L17.4-2.63 17.4-7.41 17.4-9.83 16.01-9.67 15.63-9.18 15.15-8.81Q14.39-8.38 14.13-7.9L14.13-7.9Q12.73-7.09 11.66-5.91L11.66-5.91 11.06-5.64 10.74-5.16Q9.24-4.51 8.22-3.22L8.22-3.22Q7.3-2.63 6.18-2.63L6.18-2.63 5.37-2.69Q4.35-3.22 3.17-3.49L3.17-3.49 2.69-3.87 1.88-4.19 1.99-4.73 2.9-4.73Q8.22-7.84 13.7-10.74L13.7-10.74Q14.66-11.49 15.5-11.87 16.33-12.25 17.19-12.62L17.19-12.62Q17.72-15.9 17.08-19.12L17.08-19.12Q15.74-18.85 14.61-18.56 13.48-18.26 12.41-17.83L12.41-17.83 11.87-17.72Q10.58-17.13 9.67-16.84 8.75-16.54 7.79-16.27L7.79-16.27Q6.93-15.95 5.96-15.95L5.96-15.95Q4.67-16.17 3.49-16.54 2.31-16.92 1.18-17.46L1.18-17.46 0.38-18.05-0.48-18.32-0.64-18.91-0.05-18.53 0.59-18.8Q3.28-19.44 5.96-20.06 8.65-20.68 11.39-21.32L11.39-21.32Q12.94-21.59 14.34-21.91 15.74-22.24 17.08-22.56L17.08-22.56 17.13-24.44Q17.03-25.14 17.19-26.16L17.19-26.16 16.92-27.07 16.44-27.34Q15.58-27.71 14.72-28.09L14.72-28.09 15.04-28.57 15.74-29Q16.54-28.95 17.29-28.79L17.29-28.79 17.99-29Q18.64-28.9 19.28-28.74L19.28-28.74Q19.44-28.2 19.98-27.98L19.98-27.98 20.14-27.39Q21.22-26.8 22.02-25.83L22.02-25.83 22.34-25.14 22.02-24.65 21.65-23.69Q24.49-24.12 26.88-24.49 29.27-24.87 31.69-25.41L31.69-25.41Q30.62-28.95 29.92-32.41 29.22-35.88 28.14-39.26L28.14-39.26Q26.21-41.2 24.33-43.13L24.33-43.13 25.41-42.97Q26.8-42.54 27.98-42.16L27.98-42.16 28.79-42.16 29.27-41.89Q29.97-41.52 30.45-41.09L30.45-41.09 30.78-40.23 31.26-39.91Q31.9-39.26 32.07-38.62L32.07-38.62Q32.87-37.06 33.19-35.29L33.19-35.29Q33.57-33.68 33.73-32.17 33.89-30.67 34.38-29.27L34.38-29.27 34.32-28.36 34.54-27.71Q34.97-26.91 35.13-26.1L35.13-26.1 35.66-26.05Q38.03-26.64 40.1-26.8 42.16-26.96 43.94-27.66L43.94-27.66 44.58-27.61Q45.87-27.34 47.16-26.96L47.16-26.96Q47.64-26.48 48.29-26.43L48.29-26.43 49.04-26.26Q49.79-25.67 50.54-25.03L50.54-25.03 50.76-24.49 50.38-23.96 50.54-23.31 49.63-23.58 49.36-22.93 48.72-22.88Q48.07-23.31 47.27-23.31L47.27-23.31 46.57-23.36Q45.44-23.2 44.2-23.15L44.2-23.15Q43.13-23.1 42.35-23.1 41.57-23.1 40.87-22.93L40.87-22.93Q39.58-22.88 38.51-22.72L38.51-22.72Q37.49-22.56 36.85-22.56L36.85-22.56 36.25-22.5Q36.36-21.59 36.52-21.05L36.52-21.05 36.63-20.46 36.68-19.82Q37.06-18.69 37.28-17.46L37.28-17.46 37.49-16.87 37.87-16.01Q38.24-15.09 38.56-14.61L38.56-14.61Q38.73-13.8 38.99-13.05L38.99-13.05 39.16-12.51 39.58-11.98Q40.71-13.7 41.68-15.58L41.68-15.58Q42.43-16.87 42.81-17.64 43.18-18.42 43.24-19.39L43.24-19.39 42.81-19.82 43.45-20.36Q44.47-20.2 45.06-19.82L45.06-19.82Q47.05-19.01 47.8-16.97L47.8-16.97 47.27-16.33 46.78-15.2 46.3-14.88 45.92-13.91 45.44-13.48 45.01-13.11Q43.99-10.53 41.84-8.59L41.84-8.59 41.79-8 42.22-7.3 42.7-6.82Q44.31-4.14 46.62-2.04L46.62-2.04Q47.43-1.29 47.8-0.75L47.8-0.75Q48.72-1.88 49.09-2.82 49.47-3.76 49.74-4.73L49.74-4.73Q50.22-5.64 50.43-6.5L50.43-6.5Q50.86-7.47 51.05-8.27 51.24-9.08 51.46-9.88L51.46-9.88 51.35-10.85 51.78-10.47 52.42-9.4Q52.8-8.43 52.82-7.57 52.85-6.71 53.01-5.96L53.01-5.96 53.01-5.32Q52.74-4.14 52.53-2.9L52.53-2.9 52.91-2.26Q52.69-1.02 52.48 0.27L52.48 0.27 52.8 1.13 52.64 2.04 52.69 3.06Q52.42 3.54 52.26 4.08L52.26 4.08 51.99 4.57 51.4 4.62 51.24 5.16Q50.17 5.37 49.52 4.94L49.52 4.94 47.75 4.08 47.27 3.76Q44.63-0.11 41.36-3.38L41.36-3.38Q40.87-4.51 40.01-5.42L40.01-5.42 39.1-5.75 38.46-5.42Q37.71-4.73 36.95-4.51L36.95-4.51 36.25-3.92Q35.45-3.65 34.7-3.22L34.7-3.22Q32.92-2.2 31.1-1.34L31.1-1.34Q30.02-0.75 28.9-0.62 27.77-0.48 26.59-0.21L26.59-0.21Q25.57-0.27 24.71-0.75L24.71-0.75 24.17-1.18 25.19-1.45Q26.43-1.72 27.58-2.18 28.74-2.63 29.86-3.17L29.86-3.17Q33.03-4.89 35.61-7.36L35.61-7.36Q36.25-8.38 37.22-9.02L37.22-9.02 37.11-10.26 36.74-10.85Q36.04-11.87 35.5-12.94 34.97-14.02 34.75-15.25L34.75-15.25Q34.05-16.92 33.52-18.58 32.98-20.25 32.44-21.97L32.44-21.97 31.8-21.75 30.78-21.65Q29.49-21.22 28.44-21.16 27.39-21.11 26.43-20.89L26.43-20.89 25.62-21Q24.49-20.57 23.42-20.36L23.42-20.36Q22.4-20.2 21.75-20.14L21.75-20.14 21.27-19.82 21.05-19.23 21.22-18.58Q20.89-17.46 20.84-16.22L20.84-16.22 21.11-15.31Q23.47-16.11 25.03-18.05L25.03-18.05 24.98-16.92 24.65-16.33 23.96-15.36Q23.47-15.09 23.1-14.66L23.1-14.66Q22.34-13.7 21.38-12.94L21.38-12.94Q21-11.82 20.95-10.85L20.95-10.85 21-9.99Q20.84-8.54 20.68-7.57L20.68-7.57Q20.79-5.91 20.95-4.3L20.95-4.3Q20.84-3.22 20.68-2.15L20.68-2.15 20.68-1.4 20.73-0.11Q20.46 1.02 20.03 2.04L20.03 2.04 20.14 2.69Q20.09 3.54 19.6 4.3L19.6 4.3 19.28 5.1 18.69 5.21ZM10.47-28.2L10.47-28.2 9.78-28.31Q9.24-28.57 9.88-29.22L9.88-29.22Q11.01-30.35 12.03-31.53L12.03-31.53 12.41-32.66 12.94-32.82Q13.54-34.43 14.72-35.56L14.72-35.56Q15.52-36.95 16.33-38.35L16.33-38.35 16.22-39.16 16.7-39.53 17.03-40.01 17.78-40.34 18.48-40.07Q19.71-39.96 20.73-39.91L20.73-39.91 21.05-39.42 21.7-38.78Q22.61-38.03 23.31-37.81L23.31-37.81 23.85-37.17Q23.53-36.42 23.58-35.88L23.58-35.88Q22.99-35.5 22.29-35.4L22.29-35.4 21.65-34.8 20.36-34.21 19.93-33.62Q18.8-32.87 17.56-32.5L17.56-32.5 17.19-32.01 16.87-31.53Q15.95-30.99 15.36-30.72L15.36-30.72 14.77-30.24 14.39-29.65 13-29.22Q11.82-28.41 10.47-28.2ZM50-32.6L49.25-32.33 48.72-32.6Q44.58-36.25 41.95-41.09L41.95-41.09Q43.56-40.55 44.85-39.96L44.85-39.96 45.76-39.91 46.35-39.58 46.84-38.78Q48.29-37.71 49.63-36.47L49.63-36.47 50.22-35.4 50.81-35.18 51.24-34.16 51.13-33.14 50.81-32.66 50-32.6Z" transform="translate(0.64000004529953, 43.130001068115234)"></path></g> <!----> <!----> <!----> <!----> <!----> <!----> <!----></g></g> <!----></g></g></g><defs><filter id="ca302052-c0f9-44be-971a-11d1db3e8cbf">
          <feColorMatrix type="matrix" values="0 0 0 0 0  0 0 0 0 0  0 0 0 0 0  0 0 0 1 0"></feColorMatrix>
          </filter><filter id="785b95a1-8481-4995-b994-c6eae6acc588">
          <feColorMatrix type="matrix" values="0 0 0 0 0.99609375  0 0 0 0 0.99609375  0 0 0 0 0.99609375  0 0 0 1 0"></feColorMatrix>
          </filter></defs><mask id="001351e8-2c63-47ff-8631-f8f792ad2638"><g data-v-70b83f88="" fill="#E51714" class="j-b-g-c iconbgsvg"><g data-d="container" transform="translate(0,0)"><g><rect fill="#E51714" fill-opacity="0" stroke-width="2" x="0" y="0" width="150" height="140.7869" class="image-rect" stroke="#000"></rect> <svg filter="url(#785b95a1-8481-4995-b994-c6eae6acc588)" x="0" y="0" width="150" height="140.7869" filtersec="colorsf7708728399" class="image-svg-container primary" style="overflow: visible;"><svg xmlns="http://www.w3.org/2000/svg" viewBox="0 0.02 395.06 370.79471" style="overflow: visible;"><g transform="scale(1, 1) skewX(0)"><g fill="#040000"><path d="M2.47 310.82c-.06.6 0 .9 0 0zM186.21 1.28h.46a9.89 9.89 0 0 1 .94-.85zM261.19 3.38l.46.09c-.04-.2.05-.41-.46-.09zM3.31 9.09c-.08-.7-.14-1.41-.17-2.33a10.32 10.32 0 0 0 .17 2.33zM104.87 368.69h-.32c.26.07.53.12.8.21zM102.81 369.12a1.44 1.44 0 0 0 .56.15 2.45 2.45 0 0 0-.56-.15z"></path><path d="M102.81 369.12c-.27-.19 1.16-.34 1.74-.4a15.27 15.27 0 0 0-5.51-.28c.01.44 2.51.45 3.77.68zM354.13 367.25l-.75.21a3.6 3.6 0 0 0 .75-.21zM29.48 29.9s-.07.07-.08.12.1-.02.08-.12zM314.79 366.74l-.43.82c.38-.34.46-.56.43-.82zM330.47 3.91a1 1 0 0 0 .37.63h.16zM382.54 312.42L382 311a6.48 6.48 0 0 0 .27 1.58.7.7 0 0 0 .27-.16zM391.74 58.43c.1.08.19.31.29.33a98 98 0 0 0 .31-11.4l-1-.33z"></path><path d="M393.74 12.08V5.51h-26.91l-4.24-.09c-5.66-.18-11.7-.54-22.91-1.25l2.1.68c-4.8.39-9.58.78-10.91-.31-14.52-.22-29.55-1.07-39-2.77l-2.07 1.58c-3.06-.09-7.66-2.48-9.15-.26l-6.55.7c-4.19-.13-6.75.78-11.52-.13l-.9-.19a.29.29 0 0 0 .05.13c-9.48-.7.1 1.42-10.76.51-3.48-1.13-3.85 2-9.14 1.65l-5.31-2.27c-9.59-1.31-11.23 1-25.12 1-6.67-.81-9.89-2.75-5.47-4.47-6.07 2.08-2.77 1.36-10.82 2.36-1.24-.86-.38-1 1.4-1.81-7.16-1-4.42.77-9.81.72-1.57 1.62-3.38 4.18-5.13 4.29l2.09.5a68.34 68.34 0 0 1-18.66.44l.25-.81-7.07.41-.45-1-10.09.32 1.38.28a104.52 104.52 0 0 1-14.6 0l.17-.57c-12.56-1.8-22.91.55-37.61.74L99 4.63c-5-1.17-1.37 1.81-7.34 1.22l-.3-1.44c-5.3 1.9-6.84-.41-10.46-1.12l1.69 1.89-6.81-.4c-7.51-.63-4.61-2.39-3.51-3.38l-5.12 1.49-1-1.67C62.42 3.16 62.42.9 55.87 2 55.33 1.31 57 1 54.76.68L44 3l6.51-1-.8 2.44c-6.78 1.85-9.18-.27-14 .41L39 4.13a32.94 32.94 0 0 1-7.69-.07c-.31-.06-1.17-.14-1.79-.21l-2.06-.24c-1.42-.17-3-.33-5.05-.47 2.67.46 6.36 1.13.94 1.45-4 .13-2.46-.86-6.54-1.13-.07.65-1.58 1.18-3.81 1.54a55.41 55.41 0 0 1-8.78.47c0 1.68-.12 3.36-.27 5a3 3 0 0 1-.6-1.36 26.8 26.8 0 0 1 .29 7.49c-.64-1.13-1.25-2.28-1.85-3.49.57 3 1.15 5.89 1.72 8.6a58.07 58.07 0 0 0 .07 7.92c0 .59 0 1.14.06 1.62a11 11 0 0 1 0 1.11c-.06.39-.21.59-.51.49L3 32.44a4.11 4.11 0 0 1-.09-.55l-.19-1.46-.43 23-1.43.27c2 2.19-.76 12.09 1.73 11.36-1.36 4.19 1 16.49-1.85 14-.21 14.59 2.49 22.47 1.12 40.2-2.38 6.31-1.61 23.61-1.86 35 1 22.25 1.89 36.62 2.65 59.36-3.32 13.67 1.15 34.1-.73 48.82l1.32 4c-2.1 9.78.47 24.71-1.58 38.43.58 3.37.76 5.13.81 5.91A2.08 2.08 0 0 1 3.62 309c-.59 3.92.15 11.85-1.53 11.28l-.17-1c-1.67-.58.78 11.89-.67 16.26l1.8-2.4-.31 7.43-.34-2c.11.92.21 1.82.32 2.71l.07.66.07 1.06c0 .75.09 1.5.13 2.25q.21 4.39.42 8.52c.23 5.46.36 10.51.43 15.37 8.52-.1 16.17 0 23.76.14l2.84.06 1.87.06 3.33.14 6.65.25a189.86 189.86 0 0 0 30-1.13c-4 1.95 6-1 6.37 1.11 7.63 2.69 14.14-.58 20.4-1.3 0-.11.08-.23.44-.39l10.94.25c-6.54 2.71 7.88-2.24 1.88.06 28.53 2 65.77 0 98.8.89l-1.45-.69c8.38.13 18.8-.71 25.15.4s13.9-1.77 16.37-1.88c6.17-1.06 11.82.68 11 1 7.2-.44 14.1-2.71 24.12-1.69 3.54 2.29 28.21-2.25 28.52.34l.11-.22c13.24 1.82 25.73-1.28 40 .37a3.63 3.63 0 0 1-.76.36l29-7.83-7.81-8.15c1.33-9 3.69-24.37 5.11-29.71-.52 10.38.24 2.74.88.69l-.48-.69c.47-6.22 1.69-6.22 2-9.32a.71.71 0 0 0-.34.18l.16.4c-.21.29-.36.12-.48-.22-.26.08-.47-.21-.39-1.9l.12.32c-.17-2.59 0-7.08.1-9h1c-1.93-4.6 2.94-31 3-37.15 1.28-6.21-.32-13.92.32-21.68.33-12.37 1.48-6.19 2.36-12.39.63-7.76-1.19 1.57-1.25-1.54l1.41-9.29c.12 5.39.73 2.47 1.12 1.48.18-8 2-20.69 0-23.16 1-10.84 1.78-10.86 1.88-15.51-.37 1.56-.7 4.65-1.11 4.67.89-4.34-.22-2.07-.42-.3-.88-6.62 3.69-34.35 1.47-35.74h.4c-1.65-1.54-3.26.93-4.17-3.69l.74-3.08-.72-4.65c.54-3.11 1-1.58 1.18-1.58-.76-7.57.15-18.12.37-27.29l-4.51 9.71c1-7.73 3.16-21.68 1.71-23.22l1.51-4.65c2.9-15.5-1.25-10.82-.38-17l1.65-7.79v7.75c.84-7.75 1.38-10.85 2.46-17 0 0 0-.06-.05-.06-.07.42-.15.7-.25.75v-1.08c-.82-.94-1.38-5-1.33-10.44.12-3.87-.13-7.33-.19-11.36v-3.14c0-1.41.08-2.88.12-4.43.14-3.54.39-7.52.82-12.43q-.84-1.77-1.68-3.21l.28-4-9-.72.79-1.34h10.25c.14 11.81.34 28.1.49 40l.61.21c0-3.47-.15-7.18-.28-10.59-.06-1.72-.12-3.36-.17-4.87 0-2.36-.05-4.48 0-6.3a61.92 61.92 0 0 1 1-7.33c.39-1.71.82-2.75 1.21-1.56-.28-1.79-.61-3.42-.95-4.96zm-44 331.72l-68.16 1.51-54.4-2.73-132.4.92-9.45 1.95c-10.48-1.37-22.14-1.56-34.17-1.44l-18.21.27h-3a7.49 7.49 0 0 1-1.27 0 7.22 7.22 0 0 1 .26-1.34 3 3 0 0 1 .23-.58 2.07 2.07 0 0 1 .15-.25l.08-.11v-.77l-1.67-.58c-.1-7.9.94-7.36 1.23-9.32-.37-73.5-2.6-149.17-.49-215.3 1.1-6.37.45-25.77 1.62-30.77-1-10.74-1.53-21.8-1.75-32.86-.11-5.53-.16-11.06-.16-16.56v-4.4c0-.44 0-.87.07-1.3l.18.26-.14-.78.82-.19a1.16 1.16 0 0 1 .32.47c.17-.37.72-.56 1.36-.62h5l5.68.14c7.68.26 15.68.77 22.67 1.07l-.81.19c81.63.3 157.41-2.82 238.37-.49 12.53.91 25.74 1.1 39.39 1l20.84-.19 5.11-.08.45-.07c.32-.05.68-.09 1-.12a7.71 7.71 0 0 1 0 1v.57l-.05 5.41c-.1 7.22-.32 14.45-.7 21.67-1.66 7.93-.41 95.3.37 103l2-10.13c.93 32.52-1.11 47.69.53 75.52l-.44-1.54c-.47 4.05 4.1 6.33-1.48 51.09h-.2c0 1.55.44 1.54-.1 4.64l1.24-7.73c.51 4.63 1.49 8.68 1.62 14.86-.22 1.31-.64 1.76-1 1.89l.34 15.15-1.32 4.65c.72 4.63 3.49 2.52 1.94 14.91 1.93-4.67 1.16 6.15 2.14 4.62-.24.63-.6 2.05-.93 3.19.14 4.5.39 11.42.8 16.91zM394.74 16.92c.1.54.21 1.07.32 1.63a9.81 9.81 0 0 0-.32-1.63z"></path><path d="M262.15 368.09l-.67.05a1.64 1.64 0 0 0 .67-.05zM370.42 291v-.34c-.72-.03-.42.47 0 .34zM389.69 110.48v.57l1-2.14zM390.28 226.08c.22-5.19.05-5.43-.24-4.7a24 24 0 0 0 .24 4.7zM371.76 333.38c-.06 2.73.36 1.69.83.09l-.12-4.72c-.17 1.53-.54 3.06-.71 4.63zM381.33 322.25l.58.85c-.14-1.6-.35-1.54-.58-.85zM359.2 168.93c-1.29-4.29.63-8.66-1.94-12.88-1.41-2.31 2.39-3.74 4.65-5.58l-4.68-5.5 3.36-2c-1.14-2.79-4-5.53-2.82-8s.18-4.92.44-7.37c.37-3.49.52-6.95-4.12-10.09 1.53-.85 3.66-1.49 3.76-2.18.41-2.92 3.88-5.85.16-8.81-.87-.69-1.71-1.68-1.14-2.33 1.83-2 .15-4-.35-5.93-.08-.28-.18-.56-.29-.85a3.47 3.47 0 0 1-.19-.61l-.19-.75c-.26-1-.53-2-.69-2.94a8.29 8.29 0 0 1 1.24-6.2 3.28 3.28 0 0 0 .07-3.45 14.34 14.34 0 0 1-3.2-8c-.32-2.86-.19-5.94-.49-8.73a56.5 56.5 0 0 1-.57-8.55 33.92 33.92 0 0 1 2.62-11.24 11.48 11.48 0 0 0 .7-6.91 28.72 28.72 0 0 0-5.16 1.46c-6.28 2.42-10.37 2.64-15.19 4-4.17 1.17-6.17.4-6.56-3.76-.28-3.25-2.9-4.34-6.91-2-3.24 1.94-5.76 2.15-7.92 1s-4.9-.94-7.51-.84-5.14.05-7.67-1.74a.91.91 0 0 0-.33-.13.37.37 0 0 0-.21 0 1.38 1.38 0 0 0-.49.28 4.63 4.63 0 0 1-1 .74c-1.15.38-2.34 1.18-3.47.82-6.48-2.07-12.92 4.23-19.4.29-.29-.18-.65.32-1 .38-2 .38-4 1.38-5.93.94a41 41 0 0 0-10.48-.63c-2.24.08-4.68 1.52-6.8-2.24-.78-1.4-1.55-.49-2.32.61-.56.8-1.24 1.72-1.85 1.63-4.63-.66-9.28-1.07-13.88-2.53-3.65-1.15-7.22-1.93-10.85-.08-1.1.57-2.32.16-3.46-.27-2.79-1-5.53-3.42-8.41-1.58a1.2 1.2 0 0 1-1.47-.34c-4-3.93-8.27-1.48-12.37-1.91-6.94-.72-13.92 3-20.87-.87a.36.36 0 0 0-.49.09c-2.39 3.37-4.88.55-7.3 1-2.81.47-5.59-.48-8.45.61-3.1 1.18-6.23 1.45-9.25 4.08-.89.77-2 .23-3 .08-3.8-.58-7.54-2.16-11.38-2.44a102.85 102.85 0 0 0-15.89-.31c-3.33.26-6.65.63-10 1.2-.78.14-1.53 1.31-2.33 2-1.19-2.14-2.38-4.28-3.25-5.83l-2.33.48-.52.11-.28.05-.47.06-1.87.27c-5.89 1-11.54 1.87-16.8 3-4.27.92-8.06 1.45-14.09-1.69-1.31-.68-3.54-1.21-3.63-.54-.35 2.65-2.41 2.76-4.77 2.63s-5-.5-5.57 1.18c-.15.43-2-.15-3.14-.89-4.11-2.67-5.4-1.82-6.7-1-.57.36-1.15.7-1.74 1l2.6 9.93a8.07 8.07 0 0 1 .14 1.82c-1.56-.47-3.18-.86-4-1 0 3.56.68 6.86-.24 8.78-2.18 4.61-2.86 10.81-2.9 17.15s.55 12.89.92 19.12l.17 3.25.13 1.8c.07 1.2.11 2.4.14 3.61v7.2c0 2.59-1.58 5.2 1 7.76.54.53.22 1.29-.26 1.88-2.24 2.76-3 5.23-1.5 8.18.71 1.36 1 2.6-.48 3.89-3.08 2.77-2.79 5.48.75 8.19 1.13.87 1 2 2.2 2.86 5.11 3.52 1.2 7.05.37 10.57-3.57 1.69-1.78 3.5-.52 5.24.68.93 2.37 1.67 1.06 2.8-4.81 4.14.78 8.9-4.79 13.06-.81.61.31 1.62.47 2.45.19 1 .32 2.07.48 3.11-.76 2.57-2 5.18-1.23 7.69 1 3.53.77 7 .35 10.48a54.79 54.79 0 0 0-.55 10c.4 6.67 1.3 13.34 1.81 20 .31 4 .3 8 .42 12 0 1.33.09 2.67 0 4-.32 8.26-.54 16.52-1.1 24.77a12.2 12.2 0 0 0-.57 1.67 12.35 12.35 0 0 0-.13 2.91 4.47 4.47 0 0 0 .52 3.59l.69 5.82c-.23.91-.5 1.83-.68 2.7-1.36 6.57-1.78 13.71.39 19 1.12 2.71 1.86 5 1.12 8.64-.63 3.14-.16 5.76-.3 8.68-.2 4.54-.49 9.18-.78 13.89-.09 1.49-.28 3.08-.41 4.61a22.87 22.87 0 0 0 2.4.13c5.74 0 11.75-.41 17.58-.71a2.4 2.4 0 0 1 .11.23 7.85 7.85 0 0 0 1.1-.3 147.63 147.63 0 0 1 18.2-.07c5.22.39 10.55 1 16 1l6.84-.08a4 4 0 0 0 .82.21l.39.05h.21a1.85 1.85 0 0 0 .88-.3c6.07-.13 12.15-.26 18.22-.24a4.6 4.6 0 0 0 3.57 0H124a158.21 158.21 0 0 0 17.12-.8c.54.12 1.07.2 1.61.37.8.26 1.76 1.1 2.39.34a3.2 3.2 0 0 1 1.24-.95l1.74-.07a14.64 14.64 0 0 0 2 .31c2.23.06 4.45 0 6.68 0 .94.09 1.88.06 2.82.21a3.44 3.44 0 0 0 1.11 0c.45 0 .9.09 1.34.09 3.28 0 6.54 1.05 9.84.29 2.12-.48 4.29.56 6.43.92 3.11.54 6.18 3.43 9.34 0 1-1.08 2.3-.28 3.47-.28 4.82 0 9.65 0 14.48.15a15.13 15.13 0 0 1 4 .57 16 16 0 0 0 11.34-1.14c1.65-.75 3.14-1.95 4.81.13.82 1 1.93.61 2.91.68s2-.43 3-.05c4.48 1.77 8.89 2.29 13.26-1.87.84-.8 1.95.1 2.93.4 3.47 1.08 6.92 3 10.4 3.17 4.65.24 9.31-.75 14-1.37 5-.66 9.94-2.73 15-2 .5.08 1 .29 1.49-.07 3.41-2.62 6.8-2.22 10.31-1.11 2.93.93 6-.79 8.95 0a10.12 10.12 0 0 0 7.44-.75v-4.05l.21-.07a6.87 6.87 0 0 1 5.85.67c4.74 3 6.37 1.56 9.84-4.69-.94-3.3-1.78-6.84-2.86-9.82-.65-1.78-1.7-2.59-2.53-4a8.14 8.14 0 0 1-1-5.72h6.4v-.05l15.15.05c1.25-.62 3.71-1.3 3.54-1.86-.73-2.54 1.7-4.51 5.74-5.9-1.58-3.83-2.9-7.29-4.49-10.74-.63-1.36.21-2.53 1-3.85 1.63-2.71 5.82-5.12 5.26-8.11-.53-2.81.58-5.67 0-8.47s-2.2-5.51.47-8.34c.86-.91-1.09-2.23-1.58-3.37-.34-.81-1.3-1.89-.4-2.41 5.2-3 .9-6.56 3.81-9.67-1.72-5-.58-10-.53-14.92 0-3 0-6 .07-8.94.17-5.65-.36-11.32.82-16.93 1.55-7.33 2.22-14.63.94-22a2.06 2.06 0 0 1 .8-2.42c3.85-2.28 2.05-4.54.23-6.74s-2.34-4.15-2.99-6.31zm-54.78-22.68c-.31-.06-.51-.67-.75-1a5 5 0 0 1 1.23-.61 24.07 24.07 0 0 1 2.72-.17 5.83 5.83 0 0 1 1.66.4 1.43 1.43 0 0 1 .57 1.21 1.35 1.35 0 0 1-1 .83 33.15 33.15 0 0 1-4.43-.66zm4.05 94.54c.06.16-.16.42-.26.63-.21-.1-.55-.15-.6-.31s.16-.41.26-.62c.21.1.55.15.6.3zm-1.89 35.38l-1.08-.07.22-.66c.22 0 .52 0 .65.08s.15.42.21.65zm-15.64-3.59a2.29 2.29 0 0 1 .73-2c2-1.53 3.87-.39 5.63.7a7.27 7.27 0 0 1 1.7 1.52 1.62 1.62 0 0 1 .39 1.38 4.4 4.4 0 0 1-1.54 1.52 3.67 3.67 0 0 1-1.46.19c-.29 0-.55 0-.8-.05-2.08-.3-4.05-.92-4.65-3.26zm8.12-98.58c-.13-1 .46-2.15.95-3.95 1.28 1.18 2.2 1.67 2.56 2.44a1.88 1.88 0 0 1-1.39 2.83c-.65.07-2.05-.81-2.12-1.32zm1 51.83c.16-.16.44-.18 1.18-.44 1.27 1.56 2.74 3.23 4 5 .2.29-.41 1.53-.91 1.78s-1.83.13-2-.25a51.29 51.29 0 0 1-2.5-5.49c-.12-.16.07-.5.23-.65zm3-110.9c-.12-.26.78-1 1.61-1.93a8.71 8.71 0 0 1 1.4 2.55c.06.37-.87.9-1.35 1.36a8.79 8.79 0 0 1-1.66-2.03zm8.37 103.73a1.59 1.59 0 0 1 1.23-1.05 6.38 6.38 0 0 1-1.23 1zm-32.75 21.57l.08-.46.34.32zm2.15 41.18c.07-1.74 1.81-3 3.85-2.79a5.53 5.53 0 0 1 2.69 1c-.79.22-1.59.46-2.38.76a20.41 20.41 0 0 0-4.13 1.74 5.62 5.62 0 0 1-.03-.76zm4.76-73.41c-1.83.77-3.73 1.36-5.62 2.05v.06-.09a26.44 26.44 0 0 1-4-1.77 4 4 0 0 1-1.55-2.25c-.11-.42.62-1.39 1.16-1.61a2.29 2.29 0 0 1 3 1.47 39.69 39.69 0 0 1 1.37 4.16h.07c1.22-1.55 2.37-3.16 3.72-4.59.33-.36 1.4-.28 2-.06.74.3.68 2.28-.15 2.63zm-17.4 59.2c.09-.3 1-.72 1.21-.59 1.36 1 2.62 2.12 4.22 3.45-1 .71-1.64 1.46-2.17 1.42-1.96-.15-3.73-2.54-3.26-4.28zm-1.38-52.68c-1.88-.13-2.95-1.87-2.49-4 .17-.77 1.19-1.87 1.87-1.91 2-.13 3.71 2.13 3.43 4.77-.76.36-1.82 1.21-2.81 1.14zm4.47-74.05c-.44.09-1.54-1.23-1.7-2a2 2 0 0 1 2.42-2.27c.81.25 1.43 1.11 2.69 2.15-1.5 1-2.38 1.92-3.41 2.12zm-9.5 106.71c.09.47-.55 1.09-1.24 2.28a11.71 11.71 0 0 1-1.54-2.56c-.07-.22 1-1.1 1.43-1a2 2 0 0 1 1.35 1.28zm-18-5.26c-.4 0-1.19-1-1.2-1.5a1.51 1.51 0 0 1 2.06-1.47c.55.13 1 .86 1.89 1.77a9.19 9.19 0 0 1-2.72 1.2zm1.23-11.6c.19-.12.4-.35.57-.33s.33.3.5.47l-.93.54c-.01-.23-.06-.45-.15-.68zm-4.8 44.06c-.06.2-.11.4-.17.59-.21 0-.47.08-.6 0s-.13-.38-.18-.58zm-1.65-107.3l-.84-.93 1.48-.87c.16.39.54.87.43 1.16s-.63.44-1.04.64zm-7.13 112.49c.51 1.2-.33 2.42-1.71 2.85s-2.9-.61-3-2.49c-.06-1 .64-2 1.3-3.92 1.63 1.6 2.98 2.41 3.44 3.56zm-.82-21l.52-.19c.07.17.13.35.2.53zm-.9-30.6a16 16 0 0 1-6.68-.86c-3.87-1.52-4.51-6.72-1.34-9.44a12.85 12.85 0 0 1 3.93-2.27c6.14-2.21 9.2 0 9.37 6.6.12 3.84-1.37 5.75-5.25 6zm-12.85 6l-1.32-1.19c.38-.24.76-.68 1.12-.66s.65.52 1 .82zm0 30.55c-.25.38-.45 1-.77 1.07s-.81-.37-1.22-.59c.25-.37.45-1 .75-1s.86.27 1.27.48zm-.41-57.52a2.91 2.91 0 0 1-2.17.44c-1.24-.25-2.41-1.12-3.64-1.18-2.8-.14-4.13-1.93-4.93-4.14-2.63-7.24-1.58-8.6 5.83-9.61 2.58-.35 5.39 1 8.1 1.57a.83.83 0 0 0 0-.15l.18.19h-.14c.26 1.21.5 2.42.82 3.61 1.1 4.1-1.22 6.81-4.05 9.27zm16.68-13.22c-4.41 1.8-8.89 1.5-13.35.2v.14l-.18-.19.18.05a12.05 12.05 0 0 1 0-2.17c1.09-6.33 3.63-7.73 9.67-5.31a14.72 14.72 0 0 1 4.1 2 4.87 4.87 0 0 1 1.48 3.23c.06.67-1.03 1.68-1.9 2.01zm-.79-17.09l.08-.46.34.32zm-33.81 63.58l-.25.54c-.19-.08-.47-.13-.52-.27s.14-.36.22-.54zm-79.79 13.19a3.64 3.64 0 0 1 3.83 3 4.16 4.16 0 0 1-3.47 4.37 3.26 3.26 0 0 1-.62.06 3 3 0 0 1 .59 3.2c-.29.78-1.17 1.34-1.74 2-.77-.53-1.5-.81-1.49-1.07a25.08 25.08 0 0 1 .52-4.23c0-.1.21-.19.44-.27a3.28 3.28 0 0 1-1.79-2.24 4.06 4.06 0 0 1 3.73-4.86zm-3.56-65.85a10.58 10.58 0 0 1 1.25-1.43l1.18 1.2a6.28 6.28 0 0 1-1.52 1.07c-.19.03-.95-.81-.91-.88zm3.69 39.3h1.12l-.24.67c-.23 0-.53.06-.68-.06s-.14-.42-.2-.65zm1.13-27.33c.12-.67 1.11-1.36 1.87-1.65.32-.12 1.49.77 1.45 1.13-.07.81-.65 1.56-1.36 3-.96-1.21-2.03-1.95-1.96-2.48zM109.71 173a5.34 5.34 0 0 1-5.06-5.65c.11-1.91 3-3.73 6-3.78a4.41 4.41 0 0 1 4.52 4.27 5.13 5.13 0 0 1-5.46 5.16zm-2.63 81.17c.66-.28 1.53-1 2.36-.9a6.49 6.49 0 0 1 2.55 1.24c.12.07.13.65 0 .7a13.08 13.08 0 0 1-3.24 1.43c-.47.1-1.16-.76-1.69-1.24-.06-.07.02-.4.02-1.19zm-.41-13.63a7.34 7.34 0 0 1-1-.31h-.51l.09-.14.42.14h1.54c-.21.16-.39.38-.54.35zm20.72-90.2a3.21 3.21 0 0 1-1.81-2c-.32-1.33 1.55-2.85 3-2.47.8.21 1.42 1.11 1.86 1.48.01 2.12-1.55 3.52-3.05 3.03zm.72 17.93c-.12.2-.19.51-.36.57s-.39-.18-.59-.28l.35-.61zm5 35.32v.63l-.54-.26zm0-8.75c.37-.18.73-.37 1.09-.56a6.6 6.6 0 0 1 .21 1.23c0 .12-.51.36-.55.32a8.29 8.29 0 0 1-.74-.95zm-.47 71.39c.08-.2.45-.49.51-.45.91.59 1.79 1.22 2.68 1.84l.45.1-.11.13-.34-.23c-1.06-.23-2.12-.45-3.16-.71a.93.93 0 0 1-.02-.64zm7.3-29.93a4.83 4.83 0 0 1 .53-.3 7.9 7.9 0 0 1 .5 1 3.12 3.12 0 0 1-.54.31c-.16-.31-.34-.62-.43-.97zm19.43 36c.26-3.69 4.57-8.5 8.21-9.08a4.72 4.72 0 0 1 5.2 2.39 31.53 31.53 0 0 1 1.49 4.56c.06 5-1.73 7.62-5 9.22a6.94 6.94 0 0 1-7.76-1.59 6.61 6.61 0 0 1-2.13-5.45zm3.5-26.3a2.27 2.27 0 0 1 1-1.75c.41-.18 1.19.45 2.1.85-.65.83-1 1.67-1.55 1.85-.42.1-1.54-.63-1.55-.95zm3.94-40.36l.29-.32.14.39zm3.19 14.55l1.17-.55a5.6 5.6 0 0 1 .21 1.2c0 .1-.51.35-.58.29a8.09 8.09 0 0 1-.8-.94zm11-10.72a2.57 2.57 0 0 1 2-.57c.46.16.6 1.18.67 1.34-.51 3.36-.72 6.41-4.37 6.94a3.24 3.24 0 0 1-2.65-.76 2.93 2.93 0 0 1-.12-2.78 29.71 29.71 0 0 1 4.47-4.17zm-.24-25.4v-.47l.45.24zm11.72 38.55a6.09 6.09 0 0 1-5 6 4 4 0 0 1-2.81-.74 7.32 7.32 0 0 1-1.7-2.53c-.82-1.6-1.75-3.23-.54-5.06a6.4 6.4 0 0 1 6.82-2.45c1.81.46 3.15 2.45 3.21 4.78zM190 218l.31-.34.14.42zm-8.27 25.92a3 3 0 0 1 2.24-1.56c1.91 0 3.37 1.87 3.22 4.13-.63.26-1.51 1-2.33.92-2.21-.15-3.75-1.87-3.18-3.48zm-.7-11.48a9.09 9.09 0 0 1 .55-1.18 1 1 0 0 1 .66.15 8.29 8.29 0 0 1 0 1.32zm1.97 20.88c.86-1.36 5.09-1.59 6.24-.46.13.13.1.44.14.67-.56 1.44-4.48 2.7-6 1.77a2.05 2.05 0 0 1-.38-1.98zm-6-12.49l-.38.43-.2-.53zm-.4-58.83a4.92 4.92 0 0 1-.35-.61 12.55 12.55 0 0 1 1.16-.58 5.32 5.32 0 0 1 .34.63 12.2 12.2 0 0 1-1.15.56zm17.07-4.1a1.06 1.06 0 0 1 .12.1z"></path></g></g></svg></svg> <defs><filter id="colors9477205425"><feColorMatrix type="matrix" values="0 0 0 0 0.89453125  0 0 0 0 0.08984375  0 0 0 0 0.078125  0 0 0 1 0" class="icon-fecolormatrix"></feColorMatrix></filter> <filter id="colorsf7708728399"><feColorMatrix type="matrix" values="0 0 0 0 0.99609375  0 0 0 0 0.99609375  0 0 0 0 0.99609375  0 0 0 1 0" class="icon-fecolormatrix"></feColorMatrix></filter> <filter id="colorsb221218105"><feColorMatrix type="matrix" values="0 0 0 0 0  0 0 0 0 0  0 0 0 0 0  0 0 0 1 0" class="icon-fecolormatrix"></feColorMatrix></filter></defs></g></g> <g data-d="icon-text" hollow-target="textRect" transform="translate(25.10550308227539,25.186145782470703)" filter="url(#ca302052-c0f9-44be-971a-11d1db3e8cbf)"><!----> <g data-d="text"><g data-gra="path-name" fill-rule="" class="tp-name iconsvg-namesvg"><g transform="scale(1.8600000000000008)"><g><path d="M18.69 5.21L18.37 5.48 18.26 4.83 17.35 4.51Q16.65 3.97 16.27 3.54L16.27 3.54Q14.5 2.79 13.27 1.29L13.27 1.29Q12.35 0.11 11.71-1.24L11.71-1.24Q12.89-1.13 14.15-0.91 15.42-0.7 16.81-0.75L16.81-0.75Q17.29-1.77 17.4-2.63L17.4-2.63 17.4-7.41 17.4-9.83 16.01-9.67 15.63-9.18 15.15-8.81Q14.39-8.38 14.13-7.9L14.13-7.9Q12.73-7.09 11.66-5.91L11.66-5.91 11.06-5.64 10.74-5.16Q9.24-4.51 8.22-3.22L8.22-3.22Q7.3-2.63 6.18-2.63L6.18-2.63 5.37-2.69Q4.35-3.22 3.17-3.49L3.17-3.49 2.69-3.87 1.88-4.19 1.99-4.73 2.9-4.73Q8.22-7.84 13.7-10.74L13.7-10.74Q14.66-11.49 15.5-11.87 16.33-12.25 17.19-12.62L17.19-12.62Q17.72-15.9 17.08-19.12L17.08-19.12Q15.74-18.85 14.61-18.56 13.48-18.26 12.41-17.83L12.41-17.83 11.87-17.72Q10.58-17.13 9.67-16.84 8.75-16.54 7.79-16.27L7.79-16.27Q6.93-15.95 5.96-15.95L5.96-15.95Q4.67-16.17 3.49-16.54 2.31-16.92 1.18-17.46L1.18-17.46 0.38-18.05-0.48-18.32-0.64-18.91-0.05-18.53 0.59-18.8Q3.28-19.44 5.96-20.06 8.65-20.68 11.39-21.32L11.39-21.32Q12.94-21.59 14.34-21.91 15.74-22.24 17.08-22.56L17.08-22.56 17.13-24.44Q17.03-25.14 17.19-26.16L17.19-26.16 16.92-27.07 16.44-27.34Q15.58-27.71 14.72-28.09L14.72-28.09 15.04-28.57 15.74-29Q16.54-28.95 17.29-28.79L17.29-28.79 17.99-29Q18.64-28.9 19.28-28.74L19.28-28.74Q19.44-28.2 19.98-27.98L19.98-27.98 20.14-27.39Q21.22-26.8 22.02-25.83L22.02-25.83 22.34-25.14 22.02-24.65 21.65-23.69Q24.49-24.12 26.88-24.49 29.27-24.87 31.69-25.41L31.69-25.41Q30.62-28.95 29.92-32.41 29.22-35.88 28.14-39.26L28.14-39.26Q26.21-41.2 24.33-43.13L24.33-43.13 25.41-42.97Q26.8-42.54 27.98-42.16L27.98-42.16 28.79-42.16 29.27-41.89Q29.97-41.52 30.45-41.09L30.45-41.09 30.78-40.23 31.26-39.91Q31.9-39.26 32.07-38.62L32.07-38.62Q32.87-37.06 33.19-35.29L33.19-35.29Q33.57-33.68 33.73-32.17 33.89-30.67 34.38-29.27L34.38-29.27 34.32-28.36 34.54-27.71Q34.97-26.91 35.13-26.1L35.13-26.1 35.66-26.05Q38.03-26.64 40.1-26.8 42.16-26.96 43.94-27.66L43.94-27.66 44.58-27.61Q45.87-27.34 47.16-26.96L47.16-26.96Q47.64-26.48 48.29-26.43L48.29-26.43 49.04-26.26Q49.79-25.67 50.54-25.03L50.54-25.03 50.76-24.49 50.38-23.96 50.54-23.31 49.63-23.58 49.36-22.93 48.72-22.88Q48.07-23.31 47.27-23.31L47.27-23.31 46.57-23.36Q45.44-23.2 44.2-23.15L44.2-23.15Q43.13-23.1 42.35-23.1 41.57-23.1 40.87-22.93L40.87-22.93Q39.58-22.88 38.51-22.72L38.51-22.72Q37.49-22.56 36.85-22.56L36.85-22.56 36.25-22.5Q36.36-21.59 36.52-21.05L36.52-21.05 36.63-20.46 36.68-19.82Q37.06-18.69 37.28-17.46L37.28-17.46 37.49-16.87 37.87-16.01Q38.24-15.09 38.56-14.61L38.56-14.61Q38.73-13.8 38.99-13.05L38.99-13.05 39.16-12.51 39.58-11.98Q40.71-13.7 41.68-15.58L41.68-15.58Q42.43-16.87 42.81-17.64 43.18-18.42 43.24-19.39L43.24-19.39 42.81-19.82 43.45-20.36Q44.47-20.2 45.06-19.82L45.06-19.82Q47.05-19.01 47.8-16.97L47.8-16.97 47.27-16.33 46.78-15.2 46.3-14.88 45.92-13.91 45.44-13.48 45.01-13.11Q43.99-10.53 41.84-8.59L41.84-8.59 41.79-8 42.22-7.3 42.7-6.82Q44.31-4.14 46.62-2.04L46.62-2.04Q47.43-1.29 47.8-0.75L47.8-0.75Q48.72-1.88 49.09-2.82 49.47-3.76 49.74-4.73L49.74-4.73Q50.22-5.64 50.43-6.5L50.43-6.5Q50.86-7.47 51.05-8.27 51.24-9.08 51.46-9.88L51.46-9.88 51.35-10.85 51.78-10.47 52.42-9.4Q52.8-8.43 52.82-7.57 52.85-6.71 53.01-5.96L53.01-5.96 53.01-5.32Q52.74-4.14 52.53-2.9L52.53-2.9 52.91-2.26Q52.69-1.02 52.48 0.27L52.48 0.27 52.8 1.13 52.64 2.04 52.69 3.06Q52.42 3.54 52.26 4.08L52.26 4.08 51.99 4.57 51.4 4.62 51.24 5.16Q50.17 5.37 49.52 4.94L49.52 4.94 47.75 4.08 47.27 3.76Q44.63-0.11 41.36-3.38L41.36-3.38Q40.87-4.51 40.01-5.42L40.01-5.42 39.1-5.75 38.46-5.42Q37.71-4.73 36.95-4.51L36.95-4.51 36.25-3.92Q35.45-3.65 34.7-3.22L34.7-3.22Q32.92-2.2 31.1-1.34L31.1-1.34Q30.02-0.75 28.9-0.62 27.77-0.48 26.59-0.21L26.59-0.21Q25.57-0.27 24.71-0.75L24.71-0.75 24.17-1.18 25.19-1.45Q26.43-1.72 27.58-2.18 28.74-2.63 29.86-3.17L29.86-3.17Q33.03-4.89 35.61-7.36L35.61-7.36Q36.25-8.38 37.22-9.02L37.22-9.02 37.11-10.26 36.74-10.85Q36.04-11.87 35.5-12.94 34.97-14.02 34.75-15.25L34.75-15.25Q34.05-16.92 33.52-18.58 32.98-20.25 32.44-21.97L32.44-21.97 31.8-21.75 30.78-21.65Q29.49-21.22 28.44-21.16 27.39-21.11 26.43-20.89L26.43-20.89 25.62-21Q24.49-20.57 23.42-20.36L23.42-20.36Q22.4-20.2 21.75-20.14L21.75-20.14 21.27-19.82 21.05-19.23 21.22-18.58Q20.89-17.46 20.84-16.22L20.84-16.22 21.11-15.31Q23.47-16.11 25.03-18.05L25.03-18.05 24.98-16.92 24.65-16.33 23.96-15.36Q23.47-15.09 23.1-14.66L23.1-14.66Q22.34-13.7 21.38-12.94L21.38-12.94Q21-11.82 20.95-10.85L20.95-10.85 21-9.99Q20.84-8.54 20.68-7.57L20.68-7.57Q20.79-5.91 20.95-4.3L20.95-4.3Q20.84-3.22 20.68-2.15L20.68-2.15 20.68-1.4 20.73-0.11Q20.46 1.02 20.03 2.04L20.03 2.04 20.14 2.69Q20.09 3.54 19.6 4.3L19.6 4.3 19.28 5.1 18.69 5.21ZM10.47-28.2L10.47-28.2 9.78-28.31Q9.24-28.57 9.88-29.22L9.88-29.22Q11.01-30.35 12.03-31.53L12.03-31.53 12.41-32.66 12.94-32.82Q13.54-34.43 14.72-35.56L14.72-35.56Q15.52-36.95 16.33-38.35L16.33-38.35 16.22-39.16 16.7-39.53 17.03-40.01 17.78-40.34 18.48-40.07Q19.71-39.96 20.73-39.91L20.73-39.91 21.05-39.42 21.7-38.78Q22.61-38.03 23.31-37.81L23.31-37.81 23.85-37.17Q23.53-36.42 23.58-35.88L23.58-35.88Q22.99-35.5 22.29-35.4L22.29-35.4 21.65-34.8 20.36-34.21 19.93-33.62Q18.8-32.87 17.56-32.5L17.56-32.5 17.19-32.01 16.87-31.53Q15.95-30.99 15.36-30.72L15.36-30.72 14.77-30.24 14.39-29.65 13-29.22Q11.82-28.41 10.47-28.2ZM50-32.6L49.25-32.33 48.72-32.6Q44.58-36.25 41.95-41.09L41.95-41.09Q43.56-40.55 44.85-39.96L44.85-39.96 45.76-39.91 46.35-39.58 46.84-38.78Q48.29-37.71 49.63-36.47L49.63-36.47 50.22-35.4 50.81-35.18 51.24-34.16 51.13-33.14 50.81-32.66 50-32.6Z" transform="translate(0.64000004529953, 43.130001068115234)"></path></g> <!----> <!----> <!----> <!----> <!----> <!----> <!----></g></g> <!----></g></g></g></mask><defs v-gra="od"></defs></svg>